<?xml version="1.0" standalone="no"?>
<!DOCTYPE svg PUBLIC "-//W3C//DTD SVG 20010904//EN"
 "http://www.w3.org/TR/2001/REC-SVG-20010904/DTD/svg10.dtd">
<svg version="1.0" xmlns="http://www.w3.org/2000/svg"
 width="240.000000pt" height="240.000000pt" viewBox="0 0 240.000000 240.000000"
 preserveAspectRatio="xMidYMid meet">
<metadata>
Created by potrace 1.14, written by Peter Selinger 2001-2017
</metadata>
<g transform="translate(0.000000,240.000000) scale(0.100000,-0.100000)"
fill="#000000" stroke="none">
<path d="M838 2395 c-1 -1 -66 -6 -143 -9 -77 -4 -160 -9 -185 -11 -25 -2 -79
-7 -120 -10 -76 -6 -119 -11 -176 -20 -64 -11 -150 -95 -167 -166 -4 -14 -9
-56 -13 -93 -3 -37 -7 -76 -9 -86 -19 -98 -27 -693 -12 -870 27 -320 34 -353
88 -413 46 -53 97 -76 187 -82 116 -9 114 -8 96 -58 -8 -23 -27 -59 -42 -81
-43 -63 -29 -145 30 -177 52 -28 186 2 280 62 58 38 122 108 153 169 l23 44
275 -3 c266 -3 275 -2 289 18 11 15 28 21 71 24 32 2 60 1 62 -3 3 -4 -7 -32
-22 -61 -23 -47 -27 -67 -27 -154 -1 -92 1 -105 31 -167 127 -269 464 -330
669 -121 25 25 56 67 69 94 27 52 52 149 49 187 -1 12 -2 36 -3 52 -1 21 -8
34 -23 41 -13 6 -37 39 -55 75 l-31 65 39 16 c49 19 112 89 127 140 6 21 13
65 17 98 3 33 8 74 10 90 35 290 23 936 -22 1185 -12 67 -77 143 -143 168 -32
12 -115 21 -345 37 -55 4 -116 9 -135 12 -40 5 -886 13 -892 8z"/>
</g>
</svg>
